<?xml version="1.0" standalone="no"?>
<!DOCTYPE svg PUBLIC "-//W3C//DTD SVG 20010904//EN"
 "http://www.w3.org/TR/2001/REC-SVG-20010904/DTD/svg10.dtd">
<svg version="1.0" xmlns="http://www.w3.org/2000/svg"
 width="16.000000pt" height="16.000000pt" viewBox="0 0 16.000000 16.000000"
 preserveAspectRatio="xMidYMid meet">
<metadata>
Created by potrace 1.11, written by Peter Selinger 2001-2013
</metadata>
<g transform="translate(0.000000,16.000000) scale(0.002222,-0.002222)"
fill="#000000" stroke="none">
<path d="M3256 5930 c-89 -85 -197 -283 -406 -745 -94 -209 -235 -509 -311
-667 -232 -478 -357 -773 -469 -1104 -33 -99 -60 -181 -60 -183 0 -2 -96 90
-213 205 -117 115 -412 394 -657 620 -245 226 -470 440 -501 475 l-55 64 -47
215 c-25 118 -54 256 -62 305 -19 106 -49 165 -116 231 -58 57 -62 55 -80 -51
-10 -58 -9 -94 5 -215 20 -171 29 -218 147 -755 50 -225 108 -507 130 -625
174 -938 419 -1646 761 -2188 231 -367 501 -626 823 -787 206 -103 263 -119
425 -119 156 0 203 10 367 79 343 147 614 334 899 622 254 255 615 711 1204
1518 597 819 610 837 666 861 36 15 578 39 716 32 154 -9 242 -68 306 -205 25
-54 27 -68 30 -226 l4 -168 47 42 c90 82 128 184 119 322 -12 181 -127 306
-364 399 -183 71 -309 82 -639 57 -271 -21 -506 -45 -571 -59 -22 -5 -110 -32
-195 -59 -85 -27 -201 -62 -259 -76 -58 -14 -157 -49 -220 -77 -292 -128
-1023 -477 -1161 -553 -45 -25 -84 -45 -88 -45 -3 0 -19 89 -34 198 -43 299
-109 684 -212 1242 -51 278 -96 543 -100 590 l-6 85 61 135 c34 74 96 207 138
294 73 152 76 163 76 230 1 83 -11 146 -25 146 -6 0 -39 -27 -73 -60z m-472
-1535 c13 -126 68 -437 156 -880 49 -247 98 -504 110 -570 l20 -120 -27 -24
c-129 -110 -244 -215 -287 -263 l-51 -58 -91 108 c-50 59 -150 171 -222 248
l-131 141 73 269 c159 583 190 677 327 1014 62 152 86 200 99 200 14 0 19 -12
24 -65z m-1310 -1225 c180 -162 350 -315 377 -340 l48 -45 -19 -95 c-63 -313
-83 -727 -46 -965 32 -207 95 -413 173 -568 40 -80 33 -79 -72 12 -149 129
-293 321 -404 540 -158 310 -570 1340 -659 1646 -86 297 -124 458 -110 466 8
5 71 -50 198 -174 102 -100 333 -315 514 -477z m3711 413 c-31 -48 -700 -976
-903 -1253 -251 -341 -460 -616 -580 -758 -97 -115 -292 -325 -298 -320 -1 2
11 41 27 87 60 170 85 441 76 816 -5 207 -26 509 -42 597 -4 25 3 33 83 86
412 277 825 492 1222 638 79 28 401 129 429 133 2 1 -5 -11 -14 -26z m-2817
-1291 c48 -57 89 -108 90 -113 2 -5 -18 -44 -45 -87 -97 -152 -205 -370 -248
-502 -10 -30 -20 -59 -23 -64 -14 -25 -58 200 -68 354 -10 147 14 365 63 585
l16 70 64 -70 c36 -39 104 -116 151 -173z m763 -59 c6 -125 9 -263 4 -307 l-7
-79 -45 84 c-24 46 -80 137 -124 202 -43 66 -79 123 -79 127 0 4 50 60 112
125 98 103 113 114 119 97 5 -12 13 -123 20 -249z m-398 -445 c120 -199 173
-367 184 -575 6 -122 6 -122 -22 -165 -44 -66 -125 -148 -170 -171 -56 -28
-112 -26 -168 6 -47 28 -153 136 -202 207 l-29 42 12 79 c15 104 59 214 194
488 93 188 112 221 124 210 7 -8 42 -62 77 -121z"/>
</g>
</svg>
